<svg width="56" height="56" viewBox="0 0 56 56" fill="none" xmlns="http://www.w3.org/2000/svg">
<g clip-path="url(#clip0_5760_1062)">
<path d="M47.5738 24.7324L28.008 14L8.42978 24.7324C3.44667 27.4631 0.159187 32.7565 0.00536565 38.6285C0.00178841 38.7815 0 38.9364 0 39.0914C0 48.4295 7.25466 56 16.2031 56H39.7969C48.7453 56 56 48.4295 56 39.0914C56 38.9364 55.9982 38.7834 55.9946 38.6285C55.8408 32.7583 52.5551 27.4649 47.5738 24.7324Z" fill="#A77D2A"/>
<path d="M28.2303 17.6535C33.1168 17.6535 37.0768 13.7021 37.0768 8.82675C37.0768 3.9514 33.1151 0 28.2303 0C23.3456 0 19.3838 3.9514 19.3838 8.82675C19.3838 13.7021 23.3456 17.6535 28.2303 17.6535Z" fill="#FFDF9C"/>
<path d="M28.1467 30.5495L12.3299 21.024C10.7792 20.0911 9.83301 18.4148 9.83301 16.6062C9.83301 13.2159 12.5839 10.4673 15.9769 10.4673H40.5598C43.9528 10.4673 46.7037 13.2159 46.7037 16.6062C46.7037 18.413 45.7521 20.0857 44.1978 21.0097L28.1467 30.5495Z" fill="#FFDF9C"/>
</g>
<defs>
<clipPath id="clip0_5760_1062">
<rect width="56" height="56" fill="white"/>
</clipPath>
</defs>
</svg>
