<?xml version="1.0" encoding="UTF-8"?> <svg xmlns="http://www.w3.org/2000/svg" id="Layer_1" data-name="Layer 1" version="1.1" viewBox="0 0 400 92"><defs><style> .cls-1 { fill: #58c4c6; stroke-width: 0px; } </style></defs><path class="cls-1" d="M-.5,30.4h8.6l1.4,5.1c2.6-3.5,7.2-6.3,13.4-6.3s10,3.1,11.7,6.5c2.7-3.5,7.2-6.5,13.9-6.5s14,4.8,14,15.9v28.6h-10.4v-25.8c0-6.6-2.9-9.1-7.4-9.1s-8.4,3.5-8.4,10.3v24.6h-10.4v-25.8c0-6.6-3.1-9.1-7.5-9.1s-8.4,3.4-8.4,10.3v24.6H-.5V30.4Z"></path><path class="cls-1" d="M69,52c0-12.7,9.5-22.8,22.5-22.8s22.6,10.1,22.6,22.8-9.5,22.9-22.6,22.9-22.5-10.1-22.5-22.9ZM103.6,52c0-7.6-5.2-13.2-12.1-13.2s-12.1,5.6-12.1,13.2,5,13.3,12.1,13.3,12.1-5.6,12.1-13.3Z"></path><path class="cls-1" d="M120.6,30.4h8.6l1.5,5.2c2.7-3.6,6.8-6.4,13.2-6.4,9.8,0,15.5,5.6,15.5,18.3v26.2h-10.4v-24.8c0-7.6-3.6-10.1-8.4-10.1s-9.5,3.7-9.5,11.1v23.8h-10.4V30.4Z"></path><path class="cls-1" d="M175.7,55.5c.4,5.5,5.1,10.8,12,10.8s9.5-3.6,10.6-6.6l8.8,2.7c-2.5,6.9-8.8,12.5-19.3,12.5s-21.9-9.5-21.9-22.9,9.5-22.8,21.9-22.8,20.5,9.1,20.5,22.3v4h-32.4ZM187.6,37.8c-7,0-10.9,4.8-11.9,9.7h23.1c-.3-3.9-3.7-9.7-11.2-9.7h0Z"></path><path class="cls-1" d="M253.7,30.4v41.7c0,12.1-7.5,20.2-20.7,20.2s-16.8-6.1-18.9-13.8l9.7-2c.9,4.2,3.7,6.8,9.2,6.8s10.2-3.9,10.2-11.2v-4.9c-3,3.6-6.6,6-13.2,6-9.5,0-15.8-5.6-15.8-18.2v-24.6h10.4v22.9c0,7.8,3.5,10.2,8.7,10.2s9.9-3.7,9.9-11v-22.1h10.4Z"></path><path class="cls-1" d="M272.4,68.4l-1.4,5.3h-8.6V13h10.4v22.3c2.3-3,6.8-6.1,13.4-6.1,12.4,0,20.9,10.1,20.9,22.8s-8.9,22.9-21,22.9-11.6-3.6-13.8-6.5h0ZM296.8,52c0-7.8-5.1-13.4-12.1-13.4s-11.9,5.6-11.9,13.4,4.9,13.5,11.9,13.5,12.1-5.6,12.1-13.5Z"></path><path class="cls-1" d="M388.5,73.7l-10.1-14.3-10.1,14.3h-11.5l15.7-21.9-15.5-21.4h11.6l9.8,13.8,9.8-13.8h11.5l-15.4,21.3,15.8,21.9h-11.5Z"></path><circle class="cls-1" cx="330.3" cy="22.6" r="22.5"></circle><path class="cls-1" d="M352.8,73.7c0-12.4-10.1-22.5-22.5-22.5s-22.5,10.1-22.5,22.5h45Z"></path></svg> 