<svg width="56" height="56" viewBox="0 0 56 56" fill="none" xmlns="http://www.w3.org/2000/svg">
<g clip-path="url(#clip0_5760_1058)">
<path d="M54.1932 29.9633C54.1932 15.5837 42.4959 3.92676 28.0663 3.92676C13.6368 3.92676 1.93945 15.5837 1.93945 29.9633" fill="#68D4D3"/>
<path d="M1.93945 29.9629C1.93945 44.3426 13.6368 55.9995 28.0663 55.9995C42.4959 55.9995 54.1932 44.3426 54.1932 29.9629" fill="#68D4D3"/>
<path d="M0.621537 4.63645L0.623277 4.63651L27.3875 35.1385C27.7873 35.5941 28.4973 35.5922 28.8945 35.1343L55.5393 4.4237C55.5793 4.3776 55.6157 4.32761 55.645 4.27409C56.6982 2.35287 55.2835 0 53.0385 0H2.96204C0.970212 0 -0.368818 1.85313 0.0905472 3.61315C0.187145 3.98699 0.380225 4.32987 0.619754 4.63633L0.621537 4.63645Z" fill="#A5EEEB"/>
</g>
<defs>
<clipPath id="clip0_5760_1058">
<rect width="56" height="56" fill="white"/>
</clipPath>
</defs>
</svg>
