<svg width="56" height="56" viewBox="0 0 56 56" fill="none" xmlns="http://www.w3.org/2000/svg">
<g clip-path="url(#clip0_5760_1004)">
<path d="M55.5839 17.9553C55.8451 18.1432 56 18.4454 56 18.7672V39.0034C56 39.5557 55.5523 40.0034 55 40.0034H1C0.447715 40.0034 0 39.5557 0 39.0034V18.7591C0 18.4418 0.150579 18.1434 0.405779 17.9548L21.8203 2.13372C25.1068 -0.659603 30.0527 -0.711141 33.4147 2.01003L55.5839 17.9553Z" fill="#7D516A"/>
<path d="M28.8374 25.0453C28.4345 24.5176 27.6494 24.5219 27.2515 25.0534C24.7436 28.4023 16.728 39.0749 10.212 47.4031C7.13941 51.3301 10.3613 56.0001 14.8208 56.0001H41.2577C45.7172 56.0001 48.7577 51.2134 45.8665 47.4031C39.0008 38.3604 31.2957 28.2648 28.8374 25.0453Z" fill="#D3A1D6"/>
</g>
<defs>
<clipPath id="clip0_5760_1004">
<rect width="56" height="56" fill="white"/>
</clipPath>
</defs>
</svg>
