<svg width="56" height="56" viewBox="0 0 56 56" fill="none" xmlns="http://www.w3.org/2000/svg">
<g clip-path="url(#clip0_5760_1061)">
<path d="M41.9875 -0.150635C34.2486 -0.150635 27.9769 6.13872 27.9769 13.8994V28.5369C27.4133 21.2988 21.3781 15.5969 14.0106 15.5969C6.27171 15.5969 0 21.8862 0 29.6469V55.4918H56V13.9031C56 6.14242 49.7283 -0.146929 41.9894 -0.146929L41.9857 -0.150635H41.9875Z" fill="#999423"/>
<path d="M41.9875 18.1892C34.2486 18.1892 27.9769 24.4786 27.9769 32.2393V46.8767C27.4133 39.6386 21.3781 33.9367 14.0106 33.9367C6.27171 33.9367 0 40.226 0 47.9867V55.8493H56V32.2393C56 24.4786 49.7283 18.1892 41.9894 18.1892H41.9857H41.9875Z" fill="#DDD795"/>
</g>
<defs>
<clipPath id="clip0_5760_1061">
<rect width="56" height="56" fill="white"/>
</clipPath>
</defs>
</svg>
