<svg width="56" height="56" viewBox="0 0 56 56" fill="none" xmlns="http://www.w3.org/2000/svg">
<g clip-path="url(#clip0_5760_1059)">
<path d="M55.9999 56.0001C56.0216 41.6107 53.2879 27.225 47.8008 16.2812C36.8642 -5.52661 19.1357 -5.41151 8.20102 16.5355C2.75732 27.4589 0.025622 41.7295 0 56.0001H55.9999Z" fill="#FBCBA6"/>
<path d="M56 1.00672C56 0.45221 55.5484 -4.59887e-05 54.9955 0.0425809C48.166 0.569145 41.4086 6.07032 36.1965 16.5364C30.8838 27.2042 28.1549 41.066 28.0062 54.9992C28.0003 55.5521 28.4488 56.001 29.0018 56.001H55C55.5523 56.001 56 55.5533 56 55.001V1.00672Z" fill="#BA723D"/>
</g>
<defs>
<clipPath id="clip0_5760_1059">
<rect width="56" height="56" fill="white"/>
</clipPath>
</defs>
</svg>
