<svg width="56" height="56" viewBox="0 0 56 56" fill="none" xmlns="http://www.w3.org/2000/svg">
<g clip-path="url(#clip0_6293_6514)">
<path d="M25.2091 55.731L25.2115 55.7289C40.2902 57.1062 53.8027 46.5353 55.8757 31.9585C55.9542 31.4067 55.5461 30.9099 54.9909 30.8592L1.13105 25.9393C0.586176 25.8895 0.10034 26.2887 0.0630683 26.8345C-0.939764 41.5219 10.1296 54.3537 25.2136 55.7331H25.2113L25.2091 55.731Z" fill="#DDD795"/>
<path d="M32.3429 28.292C40.0634 26.1004 44.6005 18.081 42.4773 10.3812C40.3572 2.68135 32.3793 -1.78483 24.6588 0.406763C16.9384 2.59836 12.4012 10.6178 14.5214 18.3176C16.6446 26.0174 24.6225 30.4836 32.3429 28.292Z" fill="#999423"/>
</g>
<defs>
<clipPath id="clip0_6293_6514">
<rect width="56" height="56" fill="white"/>
</clipPath>
</defs>
</svg>
