<svg width="56" height="56" viewBox="0 0 56 56" fill="none" xmlns="http://www.w3.org/2000/svg">
<g clip-path="url(#clip0_6293_6531)">
<path d="M55.6071 18.9331C55.8547 19.1223 56 19.4161 56 19.7277V41.3322C56 41.8844 55.5523 42.3322 55 42.3322H1C0.447715 42.3322 0 41.8844 0 41.3322V19.7198C0 19.4127 0.141104 19.1226 0.382709 18.933L21.821 2.11198C25.1098 -0.850398 30.0549 -0.912813 33.4149 1.97755L55.6071 18.9331Z" fill="#68D4D3"/>
<path d="M27.9997 55.8507C35.4667 55.8507 41.5169 49.8011 41.5169 42.3334C41.5169 34.8658 35.4623 28.8162 27.9997 28.8162C20.537 28.8162 14.4824 34.8658 14.4824 42.3334C14.4824 49.8011 20.537 55.8507 27.9997 55.8507Z" fill="#A5EEEB"/>
</g>
<defs>
<clipPath id="clip0_6293_6531">
<rect width="56" height="56" fill="white"/>
</clipPath>
</defs>
</svg>
