<svg width="56" height="56" viewBox="0 0 56 56" fill="none" xmlns="http://www.w3.org/2000/svg">
<g clip-path="url(#clip0_5760_1060)">
<path d="M45.799 27.999H55.9997V38.1997C55.9997 48.0243 48.0235 55.9987 38.2007 55.9987H28V45.7981C28 35.9734 35.9762 27.999 45.799 27.999Z" fill="#5A6998"/>
<path d="M28 55.9995H17.7993C7.97466 55.9995 0.000274658 48.0233 0.000274658 38.2005V27.9998H10.2009C20.0256 27.9998 28 35.976 28 45.7988V55.9995Z" fill="#5A6998"/>
<path d="M45.799 0H55.9997V10.2007C55.9997 20.0253 48.0235 27.9997 38.2007 27.9997H28V17.799C28 7.97439 35.9762 0 45.799 0Z" fill="#CAD4F3"/>
<path d="M28 28H17.7993C7.97466 28 0.000274658 20.0237 0.000274658 10.201V0.000244141H10.2009C20.0256 0.000244141 28 7.9765 28 17.7993V28Z" fill="#CAD4F3"/>
</g>
<defs>
<clipPath id="clip0_5760_1060">
<rect width="56" height="56" fill="white"/>
</clipPath>
</defs>
</svg>
